<?xml version="1.0" ?><!DOCTYPE svg  PUBLIC '-//W3C//DTD SVG 1.1//EN'  'http://www.w3.org/Graphics/SVG/1.1/DTD/svg11.dtd'><svg enable-background="new 0 0 64 64" height="64px" id="Layer_1" version="1.1" viewBox="0 0 64 64" width="64px" xml:space="preserve" xmlns="http://www.w3.org/2000/svg" xmlns:xlink="http://www.w3.org/1999/xlink"><path d="M64,37.313c0,1.657-1.343,3-3,3H3c-1.657,0-3-1.343-3-3V26.688c0-1.657,1.343-3,3-3h58c1.657,0,3,1.343,3,3V37.313z"/><path d="M37.313,64c1.657,0,3-1.343,3-3V3c0-1.657-1.343-3-3-3H26.688c-1.657,0-3,1.343-3,3v58c0,1.657,1.343,3,3,3H37.313z"/></svg>