<svg width="25" height="24" viewBox="0 0 25 24" fill="none" xmlns="http://www.w3.org/2000/svg">
<path d="M5.91946 11.341H9.42155C11.0596 11.341 11.841 10.569 11.841 8.90272V5.4477C11.841 3.78138 11.0596 3 9.42155 3H5.91946C4.28138 3 3.5 3.78138 3.5 5.4477V8.90272C3.5 10.569 4.28138 11.341 5.91946 11.341ZM15.5785 11.341H19.0805C20.7186 11.341 21.5 10.569 21.5 8.90272V5.4477C21.5 3.78138 20.7186 3 19.0805 3H15.5785C13.9404 3 13.159 3.78138 13.159 5.4477V8.90272C13.159 10.569 13.9404 11.341 15.5785 11.341ZM5.79707 9.57113C5.42992 9.57113 5.26987 9.40167 5.26987 9.03452V5.30649C5.26987 4.93933 5.42992 4.76987 5.79707 4.76987H9.54393C9.90167 4.76987 10.0711 4.93933 10.0711 5.30649V9.03452C10.0711 9.40167 9.90167 9.57113 9.54393 9.57113H5.79707ZM15.4561 9.57113C15.0889 9.57113 14.9289 9.40167 14.9289 9.03452V5.30649C14.9289 4.93933 15.0889 4.76987 15.4561 4.76987H19.2029C19.5701 4.76987 19.7301 4.93933 19.7301 5.30649V9.03452C19.7301 9.40167 19.5701 9.57113 19.2029 9.57113H15.4561ZM6.76674 8.28138H8.56485C8.71548 8.28138 8.78138 8.2249 8.78138 8.03661V6.29498C8.78138 6.12552 8.71548 6.05962 8.56485 6.05962H6.76674C6.60669 6.05962 6.55962 6.12552 6.55962 6.29498V8.03661C6.55962 8.2249 6.60669 8.28138 6.76674 8.28138ZM16.454 8.28138H18.2521C18.4121 8.28138 18.478 8.2249 18.478 8.03661V6.29498C18.478 6.12552 18.4121 6.05962 18.2521 6.05962H16.454C16.3033 6.05962 16.2469 6.12552 16.2469 6.29498V8.03661C16.2469 8.2249 16.3033 8.28138 16.454 8.28138ZM5.91946 21H9.42155C11.0596 21 11.841 20.228 11.841 18.5617V15.1067C11.841 13.4404 11.0596 12.659 9.42155 12.659H5.91946C4.28138 12.659 3.5 13.4404 3.5 15.1067V18.5617C3.5 20.228 4.28138 21 5.91946 21ZM13.8556 15.3044H15.6538C15.8138 15.3044 15.8797 15.2479 15.8797 15.0596V13.318C15.8797 13.1485 15.8138 13.0826 15.6538 13.0826H13.8556C13.705 13.0826 13.6485 13.1485 13.6485 13.318V15.0596C13.6485 15.2479 13.705 15.3044 13.8556 15.3044ZM18.9676 15.3044H20.7657C20.9257 15.3044 20.9822 15.2479 20.9822 15.0596V13.318C20.9822 13.1485 20.9257 13.0826 20.7657 13.0826H18.9676C18.8169 13.0826 18.7605 13.1485 18.7605 13.318V15.0596C18.7605 15.2479 18.8169 15.3044 18.9676 15.3044ZM5.79707 19.2301C5.42992 19.2301 5.26987 19.0607 5.26987 18.7029V14.9749C5.26987 14.5983 5.42992 14.4289 5.79707 14.4289H9.54393C9.90167 14.4289 10.0711 14.5983 10.0711 14.9749V18.7029C10.0711 19.0607 9.90167 19.2301 9.54393 19.2301H5.79707ZM16.4351 17.8651H18.2333C18.3933 17.8651 18.4592 17.7992 18.4592 17.6203V15.8692C18.4592 15.6998 18.3933 15.6339 18.2333 15.6339H16.4351C16.2845 15.6339 16.228 15.6998 16.228 15.8692V17.6203C16.228 17.7992 16.2845 17.8651 16.4351 17.8651ZM6.76674 17.9404H8.56485C8.71548 17.9404 8.78138 17.8839 8.78138 17.6956V15.954C8.78138 15.7845 8.71548 15.7186 8.56485 15.7186H6.76674C6.60669 15.7186 6.55962 15.7845 6.55962 15.954V17.6956C6.55962 17.8839 6.60669 17.9404 6.76674 17.9404ZM13.8556 20.4163H15.6538C15.8138 20.4163 15.8797 20.3504 15.8797 20.1715V18.4299C15.8797 18.251 15.8138 18.1946 15.6538 18.1946H13.8556C13.705 18.1946 13.6485 18.251 13.6485 18.4299V20.1715C13.6485 20.3504 13.705 20.4163 13.8556 20.4163ZM18.9676 20.4163H20.7657C20.9257 20.4163 20.9822 20.3504 20.9822 20.1715V18.4299C20.9822 18.251 20.9257 18.1946 20.7657 18.1946H18.9676C18.8169 18.1946 18.7605 18.251 18.7605 18.4299V20.1715C18.7605 20.3504 18.8169 20.4163 18.9676 20.4163Z" fill="#030319"/>
</svg>
