<svg width="25" height="24" viewBox="0 0 25 24" fill="none" xmlns="http://www.w3.org/2000/svg">
<path fill-rule="evenodd" clip-rule="evenodd" d="M21.4468 6.42029C22.213 4.3912 20.2282 2.40648 18.1992 3.1726L5.55565 7.94641C2.85907 8.96456 3.01008 12.8292 5.77791 13.6338L9.28506 14.6533C9.61368 14.7488 9.87063 15.0058 9.96616 15.3344L10.9857 18.8415C11.7903 21.6093 15.6549 21.7604 16.673 19.0638L21.4468 6.42029ZM17.5608 5.55142L6.26211 9.81748C5.36324 10.1569 5.41359 11.4451 6.33619 11.7133L9.84334 12.7328C9.88335 12.7444 9.923 12.7568 9.96227 12.7701L17.5608 5.55142ZM11.5487 14.0216C11.6939 14.2534 11.8083 14.5067 11.8867 14.7761L12.9062 18.2832C13.1744 19.2058 14.4626 19.2562 14.802 18.3573L19.1742 6.77732L11.5487 14.0216Z" fill="#030319"/>
</svg>
